<!DOCTYPE svg PUBLIC "-//W3C//DTD SVG 1.1//EN" "http://www.w3.org/Graphics/SVG/1.1/DTD/svg11.dtd">

<!-- Uploaded to: SVG Repo, www.svgrepo.com, Transformed by: SVG Repo Mixer Tools -->
<svg width="20px" height="20px" viewBox="-160.26 0 442.738 442.738" xmlns="http://www.w3.org/2000/svg" fill="#000000">

<g id="SVGRepo_bgCarrier" stroke-width="0"/>

<g id="SVGRepo_tracerCarrier" stroke-linecap="round" stroke-linejoin="round"/>

<g id="SVGRepo_iconCarrier">

<defs>

<style>.a{fill:#ffffff;}.b{fill:#211715;}.c{fill:#645d5c;}.d{fill:#f4b3b3;}.e{fill:#957f6e;}</style>

</defs>

<path class="a" d="M85.2,396.13a28.978,28.978,0,0,0,3.282,13.224l-9.419,4.527-11.635-4.935.081-11.829"/>

<path class="a" d="M38.659,396.13a28.99,28.99,0,0,1-3.282,13.224l10.65,3.935,10.4-4.343-.081-11.829"/>

<path class="b" d="M36.659,396.13a27.211,27.211,0,0,1-3.009,12.215,2.046,2.046,0,0,0,.717,2.736,2.021,2.021,0,0,0,2.737-.717,31.594,31.594,0,0,0,3.555-14.234,2,2,0,0,0-4,0Z"/>

<path class="b" d="M54.35,397.117l.081,11.829a2,2,0,0,0,4,0l-.081-11.829a2,2,0,0,0-4,0Z"/>

<path class="b" d="M83.2,396.13a31.594,31.594,0,0,0,3.555,14.234,2,2,0,0,0,3.454-2.019A27.192,27.192,0,0,1,87.2,396.13a2,2,0,0,0-4,0Z"/>

<path class="b" d="M65.51,397.117l-.081,11.829a2,2,0,0,0,4,0l.081-11.829a2,2,0,0,0-4,0Z"/>

<path class="c" d="M17.2,436.5q-.165-.216-.312-.446a8.358,8.358,0,0,1-.554-7.006,22.942,22.942,0,0,1,3.6-6.273q5.2-7.107,11-13.756c1.506-1.727,3.209-3.528,5.461-3.953a3.389,3.389,0,0,0,1.684,3.553,7.95,7.95,0,0,0,4.061.917,22.543,22.543,0,0,0,15.778-6.279c-.026,4.746.021,6.325,0,11.073a9.945,9.945,0,0,1-.416,3.424c-.976,2.639-3.869,3.91-6.191,5.5-6.041,4.134-9.222,11.676-15.552,15.351a16.344,16.344,0,0,1-15.108.542A9.545,9.545,0,0,1,17.2,436.5Z"/>

<path class="c" d="M106.66,436.5q.165-.216.312-.446a8.362,8.362,0,0,0,.553-7.006,22.939,22.939,0,0,0-3.595-6.273q-5.205-7.107-11-13.756c-1.507-1.727-3.209-3.528-5.462-3.953a3.388,3.388,0,0,1-1.683,3.553,7.956,7.956,0,0,1-4.062.917,22.54,22.54,0,0,1-15.777-6.279c.026,4.746-.021,6.325,0,11.073a9.993,9.993,0,0,0,.416,3.424c.976,2.639,3.87,3.91,6.192,5.5,6.04,4.134,9.222,11.676,15.552,15.351a16.342,16.342,0,0,0,15.107.542A9.54,9.54,0,0,0,106.66,436.5Z"/>

<path class="b" d="M18.927,435.488c-1.631-2.229-1.232-5.047-.048-7.4a52.085,52.085,0,0,1,5.49-7.931q3.032-3.952,6.267-7.746c1.712-2.014,3.554-4.809,6.287-5.423l-2.46-2.461a5.561,5.561,0,0,0,3.349,6.187c2.6,1.169,5.748.918,8.492.487a24.238,24.238,0,0,0,13.024-6.537l-3.414-1.414c-.021,4.044.156,8.12-.02,12.161-.088,2.008-1.12,3.183-2.726,4.266a56.634,56.634,0,0,0-4.73,3.255c-5.789,4.806-9.177,13.167-16.925,15.284-4.26,1.164-9.959.484-12.9-3.137a2.013,2.013,0,0,0-2.828,0,2.046,2.046,0,0,0,0,2.828c2.981,3.673,8.532,5.114,13.085,4.78a19.4,19.4,0,0,0,12.29-5.787c3.069-3.009,5.432-6.647,8.488-9.667a30.326,30.326,0,0,1,5.087-3.805,11.187,11.187,0,0,0,4.356-4.349c1.2-2.573.832-5.685.826-8.45-.005-2.46-.017-4.92,0-7.379a2.023,2.023,0,0,0-3.415-1.415,20.231,20.231,0,0,1-8.821,4.983,19.441,19.441,0,0,1-5.753.7c-.946-.028-3.926-.28-3.6-1.932a2.027,2.027,0,0,0-2.46-2.46c-3.455.777-5.719,3.712-7.9,6.271q-3.8,4.454-7.336,9.115c-3.858,5.058-9.873,12.535-5.153,18.985a2.059,2.059,0,0,0,2.736.718A2.015,2.015,0,0,0,18.927,435.488Z"/>

<path class="b" d="M108.387,437.506c4.721-6.451-1.3-13.927-5.153-18.985q-3.549-4.653-7.336-9.115c-2.179-2.558-4.443-5.494-7.9-6.271a2.027,2.027,0,0,0-2.46,2.46c.3,1.572-2.456,1.886-3.394,1.926a19.34,19.34,0,0,1-5.964-.7,20.225,20.225,0,0,1-8.822-4.983,2.022,2.022,0,0,0-3.414,1.415c.011,2.231.005,4.461,0,6.692a44.039,44.039,0,0,0,.183,7.082c.773,4.787,5.508,6.193,8.745,8.971,3.269,2.806,5.668,6.434,8.562,9.593,3.077,3.357,6.853,6.047,11.422,6.834,5.17.89,11.735-.225,15.218-4.515a2.059,2.059,0,0,0,0-2.828,2.014,2.014,0,0,0-2.828,0c-2.551,3.141-7.352,4.091-11.193,3.508-4-.607-7.119-2.91-9.79-5.828-2.609-2.85-4.81-6.066-7.617-8.736a29.51,29.51,0,0,0-4.739-3.567c-1.321-.826-2.968-1.735-3.616-3.241a9.937,9.937,0,0,1-.348-3.831q-.006-1.72,0-3.442c.007-2.231.013-4.461,0-6.692l-3.414,1.414a24.238,24.238,0,0,0,13.023,6.537c2.665.418,5.7.667,8.253-.386a5.6,5.6,0,0,0,3.589-6.288l-2.46,2.461c2.669.6,4.457,3.275,6.133,5.242q3.308,3.883,6.421,7.927a54.253,54.253,0,0,1,5.392,7.742c1.242,2.395,1.735,5.282.05,7.585a2.015,2.015,0,0,0,.717,2.736A2.046,2.046,0,0,0,108.387,437.506Z"/>

<path class="a" d="M49.521,83.289a38.957,38.957,0,0,1-.605,6.114c-.345,1.967-.237,3.726-2.972,4.713-.181.066-4.4,1.537-4.929,1.716,0,0,.42,18.049,19.753,18.049S83.361,96.4,83.361,96.4c-.277-.114-5.346-2.218-5.527-2.284-2.735-.987-2.627-2.746-2.972-4.713a38.973,38.973,0,0,1-.606-6.153c7.2-3.058,13-12.76,14.014-15.5.152-.461.461-1.33.737-2.36.367-.06.576-.092.576-.092a7.235,7.235,0,0,0,3.361-1.515,10.907,10.907,0,0,0,2.819-3.7,17.152,17.152,0,0,0,1.748-9.091,5.723,5.723,0,0,0-.6-2.3A4.047,4.047,0,0,0,94,46.754a4.285,4.285,0,0,0-3.431,1s.188-26.291-29.145-26.291S33.039,47.758,33.039,47.758a4.285,4.285,0,0,0-3.431-1,4.049,4.049,0,0,0-2.91,1.935,5.723,5.723,0,0,0-.6,2.3,17.143,17.143,0,0,0,1.749,9.091,10.891,10.891,0,0,0,2.818,3.7A7.24,7.24,0,0,0,34.027,65.3l1.1.169a29.161,29.161,0,0,0,5.558,10.849,24.847,24.847,0,0,0,8.685,6.9"/>

<path class="a" d="M90.571,47.758a4.285,4.285,0,0,1,3.431-1,4.047,4.047,0,0,1,2.91,1.935,5.723,5.723,0,0,1,.6,2.3,17.152,17.152,0,0,1-1.748,9.091,10.907,10.907,0,0,1-2.819,3.7A7.235,7.235,0,0,1,89.583,65.3s-.209.032-.576.092c-.276,1.03-.585,1.9-.737,2.36C87.253,70.51,81.376,80.332,74.1,83.319a38.78,38.78,0,0,0,.606,6.23c.345,1.967.237,3.726,2.972,4.713.181.066,3.259,1.266,3.535,1.38,0,0,.591,18.239-20.446,18.239S39.2,96.726,39.2,96.726c.527-.18,6.4-2.4,6.585-2.464,2.735-.987,2.627-2.746,2.972-4.713a38.381,38.381,0,0,0,.6-6.331,24.847,24.847,0,0,1-8.685-6.9,29.161,29.161,0,0,1-5.558-10.849l-1.1-.169a7.24,7.24,0,0,1-3.361-1.515,10.891,10.891,0,0,1-2.818-3.7A17.143,17.143,0,0,1,26.1,50.991a5.723,5.723,0,0,1,.6-2.3,4.049,4.049,0,0,1,2.91-1.935,4.285,4.285,0,0,1,3.431,1s-.946-26.291,28.387-26.291S90.571,47.758,90.571,47.758Z"/>

<path class="a" d="M14.537,209.24c1.547,6.537,2.381,20.349,2.918,27.046.139,1.732-1.057,2.787-2.313,1.586-.6-.575-3.2-3.552-3.961-4.149,0,2.767-.083,3.272-.015,5.119.216,5.905.46,7.619.866,11.543.174,1.687.1,3-.331,3.308-1.523,1.1-3.4,1.448-4.892.113a11.552,11.552,0,0,1-3.262-4.993A64.082,64.082,0,0,1,1.942,239.5a33.8,33.8,0,0,1,.838-8.99C4.2,224.373,5.988,216.8,6.093,210.5"/>

<path class="a" d="M107.666,209.24c-1.547,6.537-2.381,20.349-2.918,27.046-.139,1.732,1.057,2.787,2.312,1.586.6-.575,3.206-3.552,3.962-4.149,0,2.767.083,3.272.015,5.119-.216,5.905-.46,7.619-.866,11.543-.174,1.687-.1,3,.331,3.308,1.523,1.1,3.4,1.448,4.892.113a11.552,11.552,0,0,0,3.262-4.993,64.078,64.078,0,0,0,1.6-9.315,33.8,33.8,0,0,0-.837-8.99c-1.418-6.135-3.208-13.713-3.313-20.009"/>

<path class="d" d="M16.136,108.125a20.9,20.9,0,0,0-4.516,5.1,38.476,38.476,0,0,0-2.781,6.379,59.9,59.9,0,0,0-1.414,11.273c-1.619,27.393-.776,49.239-3.87,80.769,4.956.19,15.555.854,20.947.838,1.127-6.538,2.961-15.234,4.416-20.282H92.942s.208,0,.5-.025l.189,1.28c1.388,5.131,3.029,13,4.072,19.032,5.4.006,15.954-.655,20.9-.844-3.094-31.53-2.252-53.376-3.87-80.769a59.983,59.983,0,0,0-1.414-11.273,38.476,38.476,0,0,0-2.781-6.379c-2.181-3.605-5.673-6.2-9.2-8.511a101.459,101.459,0,0,0-17.65-8.885c-5.345,8.6-13.784,13.016-21.338,13.016-7.8,0-16.538-4.7-21.846-13.865-7.4,3.076-13.251,5.517-19.688,9.734A48.319,48.319,0,0,0,16.136,108.125Z"/>

<path class="a" d="M28.863,192.4c-1.391,4.88-3.111,12.983-4.234,19.344-5.485,31.082-.182,62.809,2.2,93.228,2.469,31.549,3.977,63.1,6.445,94.648a143.18,143.18,0,0,0,27.823.2,143.253,143.253,0,0,0,27.838-.2c2.468-31.549,3.976-63.1,6.445-94.648,2.379-30.419,7.682-62.146,2.2-93.228-1.123-6.361-2.843-14.464-4.234-19.344"/>

<path class="b" d="M59.93,249.679c-.428,4.681-.377,9.426-.413,14.122-.053,6.862-.025,13.726.016,20.588.059,9.672.164,19.343.15,29.015q-.026,16.1-.063,32.2-.033,18.055-.035,36.112,0,6.5.031,13c.011,2.073-.068,4.179.083,6.248a2.173,2.173,0,0,0,.611,1.628,2.063,2.063,0,0,0,2.829,0,2.014,2.014,0,0,0,0-2.828,2.188,2.188,0,0,1,.565,1.28,1.964,1.964,0,0,0-.015-.3c-.005-.332-.019-.664-.025-1-.021-1.141-.03-2.282-.038-3.423-.029-4.01-.034-8.019-.039-12.028q-.02-17.535.027-35.069.029-16.646.064-33.29c.016-8.94-.049-17.878-.113-26.817-.09-12.349-.405-24.767.208-37.107.039-.78.086-1.561.157-2.339a2.016,2.016,0,0,0-2-2,2.043,2.043,0,0,0-2,2Z"/>

<path class="b" d="M26.934,191.868a178.89,178.89,0,0,0-6.268,36.267c-.933,13.688-.254,27.429.882,41.083,1.13,13.588,2.638,27.138,3.66,40.736,1.055,14.023,1.941,28.058,2.825,42.093,1,15.863,2,31.726,3.238,47.573a2.069,2.069,0,0,0,2,2,154.428,154.428,0,0,0,26.485.307c2.551-.191,2.572-4.192,0-4a154.428,154.428,0,0,1-26.485-.307l2,2c-2.189-28.042-3.632-56.134-5.659-84.187-.981-13.583-2.348-27.122-3.581-40.683s-2.164-27.189-1.667-40.814a174.93,174.93,0,0,1,6.427-41c.7-2.481-3.157-3.54-3.857-1.063Z"/>

<path class="b" d="M91.412,192.931A173.606,173.606,0,0,1,97.6,229.1c.845,13.533.147,27.105-.985,40.6-1.134,13.509-2.624,26.983-3.639,40.5-1.053,14.023-1.937,28.058-2.822,42.093-.995,15.78-1.992,31.56-3.222,47.324l2-2a154.428,154.428,0,0,1-26.485.307c-2.568-.192-2.555,3.809,0,4a154.428,154.428,0,0,0,26.485-.307,2.068,2.068,0,0,0,2-2c2.2-28.208,3.649-56.467,5.695-84.685.99-13.658,2.382-27.269,3.61-40.906,1.221-13.564,2.122-27.195,1.574-40.818a179.377,179.377,0,0,0-6.542-41.343c-.7-2.473-4.56-1.422-3.857,1.063Z"/>

<path class="e" d="M42.062,88.6a14.686,14.686,0,0,0,7.2-5.423,24.942,24.942,0,0,1-8.583-6.857,29.161,29.161,0,0,1-5.558-10.849l-1.1-.169a7.24,7.24,0,0,1-3.361-1.515c-.17-.138-.333-.281-.491-.43a14.425,14.425,0,0,0-1.618,5.14,23.481,23.481,0,0,0-.16,3.25c.04,2.58.69,5.22.82,7.8s-.95,5.53-3.4,6.36C24.7,87.7,34.03,91.449,42.062,88.6Z"/>

<path class="b" d="M28.45,62.342a18,18,0,0,0-2,7.3,44.942,44.942,0,0,0,.628,8.268c.2,1.809.356,3.893-.895,5.393-.608.729-1.634.8-2.123,1.651a2.638,2.638,0,0,0-.238,1.969c.582,2.191,3.475,3.218,5.382,3.79a22.707,22.707,0,0,0,9.3.741,17.77,17.77,0,0,0,11.381-5.833c1.673-1.941-1.144-4.782-2.829-2.828-3.278,3.8-8.051,5.141-12.9,4.785a19.159,19.159,0,0,1-5.185-1.17c.234.1-.3-.14-.348-.165-.153-.076-.3-.155-.454-.24-.253-.144-.809-.56-.417-.246-.057-.045-.243-.171-.257-.243-.061-.305.281.421.084.1a1.46,1.46,0,0,1-.03,1.3l-1.2.919c4.228-1.605,5.189-6.062,4.7-10.13-.538-4.506-1.38-9.126.852-13.339,1.2-2.273-2.246-4.3-3.453-2.019Z"/>

<path class="e" d="M94.574,26.373c-3.38-14.1-17.822-25.14-32.952-24.315C46.181,1.216,31.457,12.734,28.476,27.245A40.949,40.949,0,0,0,28.5,40.978l1.239,5.787a4.429,4.429,0,0,1,2.915.688c5.566-4.411,16.811-11.342,22.2-15.822-.441,2.645-2.007,7.144-.034,6.682,8.243-1.846,16.143-5.568,20.9-11.387a54.946,54.946,0,0,0,3.9,10.1c1.777,2.943,6.95,9.761,11.468,10.355a4.418,4.418,0,0,1,2.913-.6,3.487,3.487,0,0,1,.527.116c2.424-5.553,1.2-14.96.239-19.648Q94.678,26.807,94.574,26.373Z"/>

<path class="b" d="M30.428,40.447a34.07,34.07,0,0,1-.269-11.156,25.91,25.91,0,0,1,3.66-10.181,31.809,31.809,0,0,1,17.738-13.8,38.833,38.833,0,0,1,11.69-1.3A29.476,29.476,0,0,1,74.453,6.3,31.734,31.734,0,0,1,90.825,21.707a34.48,34.48,0,0,1,2.834,11.336c.454,4.357.676,9.123-1.03,13.252a2.011,2.011,0,0,0,1.4,2.46,2.05,2.05,0,0,0,2.46-1.4c1.648-3.989,1.639-8.642,1.3-12.878a44.373,44.373,0,0,0-2.234-11.761A35.334,35.334,0,0,0,66.293.174,59.052,59.052,0,0,0,59.816.015a33.193,33.193,0,0,0-6.568.728A35.976,35.976,0,0,0,32.011,14.628a30.56,30.56,0,0,0-5.576,12.677,37.5,37.5,0,0,0,.136,14.2c.562,2.511,4.419,1.448,3.857-1.063Z"/>

<path class="b" d="M73.923,27.892c1.347,4.441,2.872,8.88,5.664,12.632,2.614,3.514,6.108,7.717,10.6,8.72,2.507.561,3.578-3.3,1.063-3.857-3.454-.771-6.442-4.437-8.5-7.27-2.45-3.382-3.772-7.32-4.975-11.288-.745-2.457-4.607-1.41-3.857,1.063Z"/>

<path class="b" d="M74.4,25.429a30.673,30.673,0,0,1-12.746,8.737q-1.935.75-3.929,1.331-1,.294-2.014.549c-.33.083-.7.134-1.015.245l-.407.093a1.387,1.387,0,0,1,1.505.747c.2-.061-.15.671.053.025a3.562,3.562,0,0,0,.036-.614c.046-.407.14-.813.224-1.213.221-1.057.488-2.1.676-3.166a2.019,2.019,0,0,0-3.343-1.946c-6.981,5.765-14.994,10.168-22.115,15.756a2.011,2.011,0,0,0,0,2.829,2.051,2.051,0,0,0,2.828,0c7.123-5.59,15.127-9.985,22.116-15.757L52.924,31.1c-.4,2.244-1.639,5.077-.9,7.345a2.735,2.735,0,0,0,3.323,1.8,39.593,39.593,0,0,0,5.026-1.382c6.332-2.084,12.546-5.4,16.85-10.6,1.629-1.97-1.186-4.815-2.828-2.829Z"/>

<path class="b" d="M91.986,49.172a2.212,2.212,0,0,1,3.129.412,4.735,4.735,0,0,1,.453,2.406,14.46,14.46,0,0,1-.2,2.954c-.641,3.51-2.413,7.725-6.316,8.424a2.016,2.016,0,0,0-1.4,2.46,2.043,2.043,0,0,0,2.46,1.4c6.054-1.085,8.944-7.915,9.4-13.4.236-2.839-.01-6.054-2.463-7.89a6.322,6.322,0,0,0-7.894.411,2.016,2.016,0,0,0,0,2.829,2.044,2.044,0,0,0,2.829,0Z"/>

<path class="b" d="M87.539,62.105a16.069,16.069,0,0,1-.939,4.339c-.062.191-.491,1.317-.223.709-.135.306-.276.607-.426.906a36.845,36.845,0,0,1-3.169,5.093c-2.746,3.766-6.476,7.758-11.177,8.861-2.505.588-1.445,4.446,1.063,3.857,5.675-1.331,10.075-5.968,13.413-10.487,2.88-3.9,5.257-8.321,5.458-13.278.1-2.574-3.9-2.569-4,0Z"/>

<path class="b" d="M34.453,46.343a6.325,6.325,0,0,0-7.894-.411c-2.455,1.829-2.7,5.056-2.463,7.89.455,5.487,3.345,12.318,9.4,13.4a2.057,2.057,0,0,0,2.461-1.4,2.017,2.017,0,0,0-1.4-2.46c-3.9-.7-5.675-4.915-6.316-8.424a14.294,14.294,0,0,1-.2-2.787,5.527,5.527,0,0,1,.385-2.458,2.2,2.2,0,0,1,3.2-.527,2.057,2.057,0,0,0,2.829,0,2.017,2.017,0,0,0,0-2.829Z"/>

<path class="b" d="M32.271,61.882a33.418,33.418,0,0,0,7.126,16c4.015,4.753,9.33,8.177,15.587,8.852a2.012,2.012,0,0,0,2-2,2.046,2.046,0,0,0-2-2c-5.3-.573-9.731-3.986-13.021-8C38.71,70.776,37,65.81,36.128,60.819a2.016,2.016,0,0,0-2.46-1.4,2.045,2.045,0,0,0-1.4,2.46Z"/>

<path class="b" d="M28.863,194.207H92.942c2.574,0,2.578-4,0-4H28.863c-2.574,0-2.578,4,0,4Z"/>

<path class="b" d="M39.288,96.842c3.994,6.338,10.11,11.474,17.479,13.3a24.478,24.478,0,0,0,19.453-3.7,31.947,31.947,0,0,0,9.194-9.6c1.376-2.184-2.083-4.194-3.454-2.019a25.479,25.479,0,0,1-15.088,11.464,20.482,20.482,0,0,1-16.221-3.2,27.193,27.193,0,0,1-7.909-8.262c-1.369-2.173-4.831-.168-3.454,2.019Z"/>

<path class="b" d="M13.583,215.708c1.235,5.356,1.33,10.887,1.608,16.352.064,1.272.148,2.543.232,3.814,0-.028.008.862.021.875q-.1.308.264-.228l.849-.064c.006-.107-.443-.458-.526-.547a40.755,40.755,0,0,0-3.436-3.6,2.027,2.027,0,0,0-3.414,1.415c-.007,3.89.022,7.751.347,11.633.136,1.626.326,3.245.487,4.868.054.543.1,1.086.1,1.633a3.159,3.159,0,0,0-.011.6l-.03.121q-.132.462.284-.386a5.24,5.24,0,0,1-1.118.473,1.547,1.547,0,0,1-1.308-.539c-2.621-2.377-3.04-5.977-3.564-9.272a31.162,31.162,0,0,1,.393-12.045c1.222-5.244,2.912-10.188,3.036-15.63.058-2.575-3.942-2.575-4,0-.124,5.477-2.08,10.424-3.15,15.734a37.329,37.329,0,0,0,.012,13.906c.69,4.106,1.855,8.946,5.8,11.188,2.076,1.18,5.821.734,7.122-1.49,1.079-1.844.41-4.49.2-6.489a135.007,135.007,0,0,1-.6-14.3l-3.414,1.414c1.471,1.227,2.551,2.863,3.961,4.149a3.311,3.311,0,0,0,4.2.537c1.467-1,1.579-2.751,1.463-4.363-.5-6.946-.379-13.991-1.952-20.815-.578-2.508-4.435-1.446-3.857,1.063Z"/>

<path class="b" d="M47.521,83.289Q47.5,84.5,47.4,85.7q-.047.547-.107,1.092c-.021.182-.043.363-.065.545-.018.141-.019.145,0,.012l-.031.218c-.161,1.084-.283,2.214-.549,3.279-.024.1-.051.2-.081.3s-.192.361-.022.1c.219-.334-.257.382-.24.405-.031-.042.341-.362.035-.058l-.239.234c-.31.3.343-.185-.062.036-.119.064-.231.138-.351.2s-.347.156-.092.056c-.094.037-.186.07-.281.1-.166.058-.333.112-.5.168-.461.153-.922.3-1.382.461A2,2,0,1,0,44.5,96.708a20.6,20.6,0,0,0,3.286-1.23A5.525,5.525,0,0,0,50.4,92.264a21.52,21.52,0,0,0,.617-3.415,42.986,42.986,0,0,0,.5-5.56,2,2,0,0,0-4,0Z"/>

<path class="b" d="M72.256,83.289a50.016,50.016,0,0,0,.724,6.926,7.616,7.616,0,0,0,1.53,4.092,8.382,8.382,0,0,0,3.552,2.031c.926.36,1.856.712,2.775,1.087a2.007,2.007,0,0,0,2.461-1.4,2.061,2.061,0,0,0-1.4-2.46c-.813-.331-1.635-.643-2.453-.961-.345-.135-.69-.27-1.036-.4-.079-.03-.159-.057-.237-.089.337.14-.2-.116-.267-.153-.113-.065-.536-.421-.175-.09-.1-.095-.2-.2-.305-.293-.3-.285.181.337-.01-.014-.06-.111-.124-.223-.186-.333-.185-.33.108.422-.008-.052-.035-.145-.084-.287-.118-.433-.133-.571-.2-1.157-.292-1.736a39.449,39.449,0,0,1-.558-5.723,2,2,0,0,0-4,0Z"/>

<path class="b" d="M104.763,214.645c-1.573,6.823-1.455,13.869-1.952,20.815-.116,1.613-.007,3.357,1.463,4.363a3.307,3.307,0,0,0,4.2-.537c1.4-1.3,2.491-2.922,3.961-4.149l-3.414-1.414c.007,4.34-.05,8.648-.468,12.974a28.728,28.728,0,0,0-.393,6.277c.328,2.567,3.105,3.892,5.522,3.661,2.717-.259,4.763-2.774,5.942-5.05a18.442,18.442,0,0,0,1.656-5.287,40.047,40.047,0,0,0,.66-13.037c-.841-6.141-3.395-11.827-3.537-18.084-.058-2.57-4.058-2.58-4,0,.108,4.742,1.358,9.1,2.544,13.649a32.568,32.568,0,0,1,1.062,12.864c-.463,3.164-.752,6.828-2.806,9.433-.444.565-1.115,1.454-1.881,1.546-.441.053-.737-.18-1.139-.28l-.341-.2.313.506c-.061.013-.07-.62-.071-.65a41.106,41.106,0,0,1,.481-5.481c.41-4.283.463-8.546.456-12.842a2.026,2.026,0,0,0-3.414-1.415,38.958,38.958,0,0,0-3.36,3.521c-.095.1-.544.441-.559.586.049-.484,1.167.292,1.089.411.066-.1-.024-.577-.014-.746.078-1.34.18-2.679.248-4.02.278-5.465.373-11,1.608-16.352.577-2.5-3.279-3.575-3.857-1.063Z"/>

<path class="b" d="M23.281,210.482c-6.582-.091-13.151-.575-19.726-.832l2,2c1.693-17.341,2.305-34.727,2.767-52.136.218-8.2.456-16.4.879-24.585.235-4.546.327-9.184,1.3-13.647a21.007,21.007,0,0,1,6.175-10.973,54.25,54.25,0,0,1,11.552-7.619c4.311-2.259,8.814-4.116,13.3-5.982a2.065,2.065,0,0,0,1.4-2.46,2.013,2.013,0,0,0-2.46-1.4C32.3,96.245,24.1,99.677,16.942,104.97a24.5,24.5,0,0,0-8.414,9.97,29.894,29.894,0,0,0-2.118,6.434,67.4,67.4,0,0,0-.868,7.618c-1.137,16.955-1.168,33.962-1.848,50.936C3.269,190.521,2.585,201.1,1.555,211.65a2.026,2.026,0,0,0,2,2c6.575.257,13.144.741,19.726.832,2.575.035,2.576-3.965,0-4Z"/>

<path class="b" d="M98.874,214.482c6.582-.091,13.151-.575,19.727-.832a2.018,2.018,0,0,0,2-2c-1.745-17.872-2.328-35.789-2.81-53.73-.227-8.445-.49-16.889-.962-25.325-.267-4.777-.27-10.01-1.966-14.537a32.431,32.431,0,0,0-2.816-6.184,22.637,22.637,0,0,0-4.192-4.8c-7.522-6.589-17.048-10.434-26.165-14.223a2.012,2.012,0,0,0-2.46,1.4,2.051,2.051,0,0,0,1.4,2.46c7.851,3.263,15.69,6.63,22.568,11.716a20.955,20.955,0,0,1,7.427,9.677c1.676,4.371,1.892,9,2.159,13.639.942,16.4,1.043,32.823,1.724,49.229.425,10.245,1.1,20.476,2.1,30.681l2-2c-6.576.257-13.145.741-19.727.832-2.571.035-2.579,4.035,0,4Z"/>

<path class="b" d="M25.125,136.805a66.164,66.164,0,0,0-.749,14.073,117.978,117.978,0,0,0,1.8,12.165A124.769,124.769,0,0,1,27.3,182.112c0,1.77-.023,3.541-.1,5.31-.033.748-.074,1.5-.133,2.243-.026.328-.054.657-.088.984-.014.135-.029.27-.044.405a1.1,1.1,0,0,1-.026.212,2.068,2.068,0,0,0,1.4,2.461,2.014,2.014,0,0,0,2.46-1.4c.883-6.167.614-12.564.32-18.765-.149-3.157-.357-6.319-.754-9.455-.438-3.454-1.36-6.812-1.72-10.279a61.691,61.691,0,0,1,.371-15.963,2.063,2.063,0,0,0-1.4-2.46,2.016,2.016,0,0,0-2.46,1.4Z"/>

<path class="b" d="M93.242,137.868a61.513,61.513,0,0,1,.548,13.919c-.265,3.765-1.206,7.361-1.731,11.078a139.724,139.724,0,0,0-1.133,19.877,69.186,69.186,0,0,0,.532,9.588,2.014,2.014,0,0,0,2.461,1.4,2.054,2.054,0,0,0,1.4-2.461c-.056-.386-.012-.1,0-.018-.015-.131-.032-.262-.045-.394-.029-.283-.058-.566-.083-.85-.055-.64-.1-1.283-.129-1.925-.079-1.519-.113-3.04-.125-4.56-.029-3.538.06-7.077.24-10.609.15-2.953.369-6.238.745-8.982.507-3.691,1.453-7.276,1.784-11a65.8,65.8,0,0,0-.6-16.118,2.014,2.014,0,0,0-2.46-1.4,2.048,2.048,0,0,0-1.4,2.46Z"/>

<path class="b" d="M56.45,71.388a12.085,12.085,0,0,0,5.82,1.358,9.6,9.6,0,0,0,5.985-1.812,2,2,0,0,0,0-2.829,2.064,2.064,0,0,0-2.829,0c.691-.538-.025-.012-.243.1-.169.089-.622.23.008.016-.158.054-.312.12-.472.172-.424.136-.911.149-1.321.3.21-.078.323-.039.023-.009-.13.013-.259.024-.389.032-.313.02-.626.028-.94.026-.28,0-.561-.011-.841-.03-.128-.009-.257-.019-.385-.032q-.109-.01-.219-.024-.235-.028.182.024c-.049.051-.552-.1-.632-.118q-.3-.067-.6-.156c-.173-.052-.342-.114-.513-.172-.449-.154.421.2.014.009-.212-.1-.42-.2-.627-.313a2,2,0,1,0-2.019,3.454Z"/>

<path class="b" d="M61,58.009a25.727,25.727,0,0,1,.612,2.8l-.071-.531a1.718,1.718,0,0,1,.01.386l.071-.532a.959.959,0,0,1-.042.174l.2-.478a.679.679,0,0,1-.062.112l.313-.405a.6.6,0,0,1-.091.09l.4-.313a1.8,1.8,0,0,1-.221.118l.478-.2a1.621,1.621,0,0,1-.374.109l.532-.072a1.526,1.526,0,0,1-.351,0l.532.071c-.132-.018-.262-.05-.394-.068a1.526,1.526,0,0,0-.8-.036,1.486,1.486,0,0,0-.743.237,2,2,0,0,0-.718,2.737,1.916,1.916,0,0,0,1.2.919c.351.047.692.135,1.05.151a3.448,3.448,0,0,0,1.61-.393,2.443,2.443,0,0,0,1.319-1.6,3.772,3.772,0,0,0-.013-1.658c-.152-.9-.361-1.8-.592-2.679a2,2,0,0,0-2.461-1.4,2.025,2.025,0,0,0-1.2.92,2.108,2.108,0,0,0-.2,1.541Z"/>

<path class="b" d="M46.75,49.935c-.467,1.519-.163,5.011,2.714,5.308,3.8-.022,4-4.245,2.724-6.23C51.14,47.387,48.059,46.711,46.75,49.935Z"/>

<path class="b" d="M77.193,49.936c.467,1.518.163,5.01-2.713,5.307-3.8-.022-4-4.245-2.725-6.23C72.8,47.387,75.884,46.711,77.193,49.936Z"/>

<path class="b" d="M71.588,66.925q.175.192.334.4l-.313-.405a6.036,6.036,0,0,1,.751,1.3l-.2-.477a5.891,5.891,0,0,1,.394,1.446,2.233,2.233,0,0,0,.92,1.195,2,2,0,0,0,2.736-.717l.2-.478a2.018,2.018,0,0,0,0-1.063A7.765,7.765,0,0,0,74.416,64.1a2,2,0,0,0-2.828,0A2.01,2.01,0,0,0,71,65.511a2.159,2.159,0,0,0,.586,1.414Z"/>

</g>

</svg>